<?xml version="1.0" encoding="utf-8"?>
<!-- Generator: Adobe Illustrator 16.0.0, SVG Export Plug-In . SVG Version: 6.00 Build 0)  -->
<!DOCTYPE svg PUBLIC "-//W3C//DTD SVG 1.1//EN" "http://www.w3.org/Graphics/SVG/1.1/DTD/svg11.dtd">
<svg version="1.1" id="Layer_2" xmlns="http://www.w3.org/2000/svg" xmlns:xlink="http://www.w3.org/1999/xlink" x="0px" y="0px"
	 width="19.986px" height="60px" viewBox="0 0 19.986 60" enable-background="new 0 0 19.986 60" xml:space="preserve">
<path d="M6.891,32l9.176,0.053c0,0-5.978,9.233-13.003,15.76c-0.053,0,7.708,0.053,7.708,0.053l0.052-5.041l5.873-5.677
	l0.262,11.036l2.991-0.017l-0.002,1.715l-3.015-0.013l0.013,2.903c0,0,0.499,2.124,3.041,2.163c0,0.052,0.013,3.012,0.013,3.012
	L7.625,58l0.052-3.184c0,0,3.172,0.796,3.159-4.908c0-0.001-10.749-0.013-10.749-0.013L0,48.511C0,48.511,7.232,41.422,6.891,32z"/>
<path d="M6.891,2l9.176,0.053c0,0-5.978,9.233-13.003,15.76c-0.053,0,7.708,0.053,7.708,0.053l0.053-5.041l5.873-5.677l0.262,11.036
	l2.991-0.017l-0.003,1.715l-3.015-0.013l0.013,2.903c0,0,0.499,2.124,3.041,2.163c0,0.052,0.014,3.012,0.014,3.012L7.625,28
	l0.053-3.184c0,0,3.172,0.796,3.159-4.908c0-0.001-10.749-0.013-10.749-0.013L0,18.511C0,18.511,7.232,11.422,6.891,2z"/>
</svg>
