<?xml version="1.0" encoding="UTF-8" standalone="no"?>
<!-- Created with Inkscape (http://www.inkscape.org/) -->
<svg
   xmlns:dc="http://purl.org/dc/elements/1.1/"
   xmlns:cc="http://web.resource.org/cc/"
   xmlns:rdf="http://www.w3.org/1999/02/22-rdf-syntax-ns#"
   xmlns:svg="http://www.w3.org/2000/svg"
   xmlns="http://www.w3.org/2000/svg"
   xmlns:sodipodi="http://sodipodi.sourceforge.net/DTD/sodipodi-0.dtd"
   xmlns:inkscape="http://www.inkscape.org/namespaces/inkscape"
   width="970"
   height="160"
   id="svg2"
   sodipodi:version="0.32"
   inkscape:version="0.44.1"
   version="1.0"
   sodipodi:docbase="C:\Users\Jeremy\Pictures\Wikipedia Files"
   sodipodi:docname="Barlines.svg">
  <defs
     id="defs4" />
  <sodipodi:namedview
     id="base"
     pagecolor="#ffffff"
     bordercolor="#666666"
     borderopacity="1.0"
     gridtolerance="10000"
     guidetolerance="10"
     objecttolerance="10"
     inkscape:pageopacity="0.0"
     inkscape:pageshadow="2"
     inkscape:zoom="0.98994949"
     inkscape:cx="567.53226"
     inkscape:cy="129.25684"
     inkscape:document-units="px"
     inkscape:current-layer="layer1"
     width="970px"
     height="160px"
     showgrid="false"
     inkscape:window-width="1680"
     inkscape:window-height="1000"
     inkscape:window-x="-8"
     inkscape:window-y="-8" />
  <metadata
     id="metadata7">
    <rdf:RDF>
      <cc:Work
         rdf:about="">
        <dc:format>image/svg+xml</dc:format>
        <dc:type
           rdf:resource="http://purl.org/dc/dcmitype/StillImage" />
      </cc:Work>
    </rdf:RDF>
  </metadata>
  <g
     inkscape:label="Layer 1"
     inkscape:groupmode="layer"
     id="layer1"
     style="opacity:1">
    <path
       style="fill:black;fill-opacity:1"
       d="M -86.2201,94.307452 C -86.2201,93.646342 -45.55344,93.307452 33.779895,93.307452 L 153.77989,93.307452 L 153.77989,83.807453 L 153.77989,74.307453 L 33.779895,74.307453 C -45.55344,74.307453 -86.2201,73.968573 -86.2201,73.307457 C -86.2201,72.646346 -45.55344,72.307457 33.779895,72.307457 L 153.77989,72.307457 L 153.77989,62.807457 L 153.77989,53.307457 L 33.779895,53.307457 C -45.55344,53.307457 -86.2201,52.968568 -86.2201,52.307457 C -86.2201,51.646346 -45.55344,51.307457 33.779895,51.307457 L 153.77989,51.307457 L 153.77989,41.307456 L 153.77989,31.307456 L 33.779895,31.307456 C -45.55344,31.307456 -86.2201,30.968566 -86.2201,30.307456 C -86.2201,29.646346 -45.55344,29.307456 33.779895,29.307456 L 153.77989,29.307456 L 153.77989,19.807456 L 153.77989,10.307456 L 33.779895,10.307456 C -45.55344,10.307456 -86.2201,9.9685662 -86.2201,9.3074562 C -86.2201,8.6419762 101.77989,8.3074562 475.77989,8.3074562 C 849.77989,8.3074562 1037.78,8.6419762 1037.78,9.3074562 C 1037.78,9.9673562 1004.28,10.307456 939.27989,10.307456 L 840.77989,10.307456 L 840.77989,19.807456 L 840.77989,29.307456 L 939.27989,29.307456 C 1004.28,29.307456 1037.78,29.647556 1037.78,30.307456 C 1037.78,30.967356 1004.28,31.307456 939.27989,31.307456 L 840.77989,31.307456 L 840.77989,41.307456 L 840.77989,51.307457 L 939.27989,51.307457 C 1004.28,51.307457 1037.78,51.647559 1037.78,52.307457 C 1037.78,52.967355 1004.28,53.307457 939.27989,53.307457 L 840.77989,53.307457 L 840.77989,62.807457 L 840.77989,72.307457 L 939.27989,72.307457 C 1004.28,72.307457 1037.78,72.647559 1037.78,73.307457 C 1037.78,73.967353 1004.28,74.307453 939.27989,74.307453 L 840.77989,74.307453 L 840.77989,83.807453 L 840.77989,93.307452 L 939.27989,93.307452 C 1004.28,93.307452 1037.78,93.647562 1037.78,94.307452 C 1037.78,94.972932 849.77989,95.307452 475.77989,95.307452 C 101.77989,95.307452 -86.2201,94.972932 -86.2201,94.307452 z M 284.77989,83.807453 L 284.77989,74.307453 L 220.27989,74.307453 L 155.77989,74.307453 L 155.77989,83.807453 L 155.77989,93.307452 L 220.27989,93.307452 L 284.77989,93.307452 L 284.77989,83.807453 z M 295.77989,83.807453 L 295.77989,74.307453 L 291.27989,74.307453 L 286.77989,74.307453 L 286.77989,83.807453 L 286.77989,93.307452 L 291.27989,93.307452 L 295.77989,93.307452 L 295.77989,83.807453 z M 410.77989,83.807453 L 410.77989,74.307453 L 354.27989,74.307453 L 297.77989,74.307453 L 297.77989,83.807453 L 297.77989,93.307452 L 354.27989,93.307452 L 410.77989,93.307452 L 410.77989,83.807453 z M 420.77989,83.807453 L 420.77989,74.307453 L 416.77989,74.307453 L 412.77989,74.307453 L 412.77989,83.807453 L 412.77989,93.307452 L 416.77989,93.307452 L 420.77989,93.307452 L 420.77989,83.807453 z M 540.77989,83.807453 L 540.77989,74.307453 L 486.27989,74.307453 L 431.77989,74.307453 L 431.77989,83.807453 L 431.77989,93.307452 L 486.27989,93.307452 L 540.77989,93.307452 L 540.77989,83.807453 z M 562.77989,83.807453 L 562.77989,74.307453 L 557.27989,74.307453 L 551.77989,74.307453 L 551.77989,83.807453 L 551.77989,93.307452 L 557.27989,93.307452 L 562.77989,93.307452 L 562.77989,83.807453 z M 682.77989,83.807453 L 682.77989,74.307453 L 623.77989,74.307453 L 564.77989,74.307453 L 564.77989,83.807453 L 564.77989,93.307452 L 623.77989,93.307452 L 682.77989,93.307452 L 682.77989,83.807453 z M 695.77989,83.807453 L 695.77989,74.307453 L 690.27989,74.307453 L 684.77989,74.307453 L 684.77989,83.807453 L 684.77989,93.307452 L 690.27989,93.307452 L 695.77989,93.307452 L 695.77989,83.807453 z M 804.77989,83.807453 L 804.77989,74.307453 L 756.77989,74.307453 L 708.77989,74.307453 L 708.77989,83.807453 L 708.77989,93.307452 L 756.77989,93.307452 L 804.77989,93.307452 L 804.77989,83.807453 z M 817.77989,83.807453 L 817.77989,74.307453 L 812.27989,74.307453 L 806.77989,74.307453 L 806.77989,83.807453 L 806.77989,93.307452 L 812.27989,93.307452 L 817.77989,93.307452 L 817.77989,83.807453 z M 838.77989,83.807453 L 838.77989,74.307453 L 833.77989,74.307453 L 828.77989,74.307453 L 828.77989,83.807453 L 828.77989,93.307452 L 833.77989,93.307452 L 838.77989,93.307452 L 838.77989,83.807453 z M 284.77989,62.807457 L 284.77989,53.307457 L 220.27989,53.307457 L 155.77989,53.307457 L 155.77989,62.807457 L 155.77989,72.307457 L 220.27989,72.307457 L 284.77989,72.307457 L 284.77989,62.807457 z M 295.77989,62.807457 L 295.77989,53.307457 L 291.27989,53.307457 L 286.77989,53.307457 L 286.77989,62.807457 L 286.77989,72.307457 L 291.27989,72.307457 L 295.77989,72.307457 L 295.77989,62.807457 z M 410.77989,62.807457 L 410.77989,53.307457 L 354.27989,53.307457 L 297.77989,53.307457 L 297.77989,62.807457 L 297.77989,72.307457 L 354.27989,72.307457 L 410.77989,72.307457 L 410.77989,62.807457 z M 420.77989,62.807457 L 420.77989,53.307457 L 416.77989,53.307457 L 412.77989,53.307457 L 412.77989,62.807457 L 412.77989,72.307457 L 416.77989,72.307457 L 420.77989,72.307457 L 420.77989,62.807457 z M 540.77989,62.807457 L 540.77989,53.307457 L 486.27989,53.307457 L 431.77989,53.307457 L 431.77989,62.807457 L 431.77989,72.307457 L 486.27989,72.307457 L 540.77989,72.307457 L 540.77989,62.807457 z M 562.77989,62.807457 L 562.77989,53.307457 L 557.27989,53.307457 L 551.77989,53.307457 L 551.77989,62.807457 L 551.77989,72.307457 L 557.27989,72.307457 L 562.77989,72.307457 L 562.77989,62.807457 z M 682.77989,62.807457 L 682.77989,53.307457 L 623.77989,53.307457 L 564.77989,53.307457 L 564.77989,62.807457 L 564.77989,72.307457 L 623.77989,72.307457 L 682.77989,72.307457 L 682.77989,62.807457 z M 571.97989,64.107457 C 569.32247,61.450038 571.25329,56.307457 574.90846,56.307457 C 576.97015,56.307457 579.77989,58.902964 579.77989,60.807457 C 579.77989,64.305261 574.43781,66.565373 571.97989,64.107457 z M 669.97989,64.107457 C 667.32247,61.450038 669.25329,56.307457 672.90846,56.307457 C 674.97015,56.307457 677.77989,58.902964 677.77989,60.807457 C 677.77989,64.305261 672.43781,66.565373 669.97989,64.107457 z M 695.77989,62.807457 L 695.77989,53.307457 L 690.27989,53.307457 L 684.77989,53.307457 L 684.77989,62.807457 L 684.77989,72.307457 L 690.27989,72.307457 L 695.77989,72.307457 L 695.77989,62.807457 z M 804.77989,62.807457 L 804.77989,53.307457 L 756.77989,53.307457 L 708.77989,53.307457 L 708.77989,62.807457 L 708.77989,72.307457 L 756.77989,72.307457 L 804.77989,72.307457 L 804.77989,62.807457 z M 791.97989,64.107457 C 789.32247,61.450038 791.25329,56.307457 794.90846,56.307457 C 796.97015,56.307457 799.77989,58.902964 799.77989,60.807457 C 799.77989,64.305261 794.43781,66.565373 791.97989,64.107457 z M 817.77989,62.807457 L 817.77989,53.307457 L 812.27989,53.307457 L 806.77989,53.307457 L 806.77989,62.807457 L 806.77989,72.307457 L 812.27989,72.307457 L 817.77989,72.307457 L 817.77989,62.807457 z M 838.77989,62.807457 L 838.77989,53.307457 L 833.77989,53.307457 L 828.77989,53.307457 L 828.77989,62.807457 L 828.77989,72.307457 L 833.77989,72.307457 L 838.77989,72.307457 L 838.77989,62.807457 z M 284.77989,41.307456 L 284.77989,31.307456 L 220.27989,31.307456 L 155.77989,31.307456 L 155.77989,41.307456 L 155.77989,51.307457 L 220.27989,51.307457 L 284.77989,51.307457 L 284.77989,41.307456 z M 295.77989,41.307456 L 295.77989,31.307456 L 291.27989,31.307456 L 286.77989,31.307456 L 286.77989,41.307456 L 286.77989,51.307457 L 291.27989,51.307457 L 295.77989,51.307457 L 295.77989,41.307456 z M 410.77989,41.307456 L 410.77989,31.307456 L 354.27989,31.307456 L 297.77989,31.307456 L 297.77989,41.307456 L 297.77989,51.307457 L 354.27989,51.307457 L 410.77989,51.307457 L 410.77989,41.307456 z M 420.77989,41.307456 L 420.77989,31.307456 L 416.77989,31.307456 L 412.77989,31.307456 L 412.77989,41.307456 L 412.77989,51.307457 L 416.77989,51.307457 L 420.77989,51.307457 L 420.77989,41.307456 z M 540.77989,41.307456 L 540.77989,31.307456 L 486.27989,31.307456 L 431.77989,31.307456 L 431.77989,41.307456 L 431.77989,51.307457 L 486.27989,51.307457 L 540.77989,51.307457 L 540.77989,41.307456 z M 562.77989,41.307456 L 562.77989,31.307456 L 557.27989,31.307456 L 551.77989,31.307456 L 551.77989,41.307456 L 551.77989,51.307457 L 557.27989,51.307457 L 562.77989,51.307457 L 562.77989,41.307456 z M 682.77989,41.307456 L 682.77989,31.307456 L 623.77989,31.307456 L 564.77989,31.307456 L 564.77989,41.307456 L 564.77989,51.307457 L 623.77989,51.307457 L 682.77989,51.307457 L 682.77989,41.307456 z M 571.97989,43.107457 C 569.32247,40.450036 571.25329,35.307456 574.90846,35.307456 C 576.97015,35.307456 579.77989,37.902966 579.77989,39.807456 C 579.77989,43.305261 574.43781,45.565373 571.97989,43.107457 z M 669.97989,43.107457 C 667.32247,40.450036 669.25329,35.307456 672.90846,35.307456 C 674.97015,35.307456 677.77989,37.902966 677.77989,39.807456 C 677.77989,43.305261 672.43781,45.565373 669.97989,43.107457 z M 695.77989,41.307456 L 695.77989,31.307456 L 690.27989,31.307456 L 684.77989,31.307456 L 684.77989,41.307456 L 684.77989,51.307457 L 690.27989,51.307457 L 695.77989,51.307457 L 695.77989,41.307456 z M 804.77989,41.307456 L 804.77989,31.307456 L 756.77989,31.307456 L 708.77989,31.307456 L 708.77989,41.307456 L 708.77989,51.307457 L 756.77989,51.307457 L 804.77989,51.307457 L 804.77989,41.307456 z M 791.97989,43.107457 C 789.32247,40.450036 791.25329,35.307456 794.90846,35.307456 C 796.97015,35.307456 799.77989,37.902966 799.77989,39.807456 C 799.77989,43.305261 794.43781,45.565373 791.97989,43.107457 z M 817.77989,41.307456 L 817.77989,31.307456 L 812.27989,31.307456 L 806.77989,31.307456 L 806.77989,41.307456 L 806.77989,51.307457 L 812.27989,51.307457 L 817.77989,51.307457 L 817.77989,41.307456 z M 838.77989,41.307456 L 838.77989,31.307456 L 833.77989,31.307456 L 828.77989,31.307456 L 828.77989,41.307456 L 828.77989,51.307457 L 833.77989,51.307457 L 838.77989,51.307457 L 838.77989,41.307456 z M 284.77989,19.807456 L 284.77989,10.307456 L 220.27989,10.307456 L 155.77989,10.307456 L 155.77989,19.807456 L 155.77989,29.307456 L 220.27989,29.307456 L 284.77989,29.307456 L 284.77989,19.807456 z M 295.77989,19.807456 L 295.77989,10.307456 L 291.27989,10.307456 L 286.77989,10.307456 L 286.77989,19.807456 L 286.77989,29.307456 L 291.27989,29.307456 L 295.77989,29.307456 L 295.77989,19.807456 z M 410.77989,19.807456 L 410.77989,10.307456 L 354.27989,10.307456 L 297.77989,10.307456 L 297.77989,19.807456 L 297.77989,29.307456 L 354.27989,29.307456 L 410.77989,29.307456 L 410.77989,19.807456 z M 420.77989,19.807456 L 420.77989,10.307456 L 416.77989,10.307456 L 412.77989,10.307456 L 412.77989,19.807456 L 412.77989,29.307456 L 416.77989,29.307456 L 420.77989,29.307456 L 420.77989,19.807456 z M 540.77989,19.807456 L 540.77989,10.307456 L 486.27989,10.307456 L 431.77989,10.307456 L 431.77989,19.807456 L 431.77989,29.307456 L 486.27989,29.307456 L 540.77989,29.307456 L 540.77989,19.807456 z M 562.77989,19.807456 L 562.77989,10.307456 L 557.27989,10.307456 L 551.77989,10.307456 L 551.77989,19.807456 L 551.77989,29.307456 L 557.27989,29.307456 L 562.77989,29.307456 L 562.77989,19.807456 z M 682.77989,19.807456 L 682.77989,10.307456 L 623.77989,10.307456 L 564.77989,10.307456 L 564.77989,19.807456 L 564.77989,29.307456 L 623.77989,29.307456 L 682.77989,29.307456 L 682.77989,19.807456 z M 695.77989,19.807456 L 695.77989,10.307456 L 690.27989,10.307456 L 684.77989,10.307456 L 684.77989,19.807456 L 684.77989,29.307456 L 690.27989,29.307456 L 695.77989,29.307456 L 695.77989,19.807456 z M 804.77989,19.807456 L 804.77989,10.307456 L 756.77989,10.307456 L 708.77989,10.307456 L 708.77989,19.807456 L 708.77989,29.307456 L 756.77989,29.307456 L 804.77989,29.307456 L 804.77989,19.807456 z M 817.77989,19.807456 L 817.77989,10.307456 L 812.27989,10.307456 L 806.77989,10.307456 L 806.77989,19.807456 L 806.77989,29.307456 L 812.27989,29.307456 L 817.77989,29.307456 L 817.77989,19.807456 z M 838.77989,19.807456 L 838.77989,10.307456 L 833.77989,10.307456 L 828.77989,10.307456 L 828.77989,19.807456 L 828.77989,29.307456 L 833.77989,29.307456 L 838.77989,29.307456 L 838.77989,19.807456 z M 848.97989,64.107457 C 846.32247,61.450038 848.25329,56.307457 851.90846,56.307457 C 853.97015,56.307457 856.77989,58.902964 856.77989,60.807457 C 856.77989,64.305261 851.43781,66.565373 848.97989,64.107457 z M 848.97989,43.107457 C 846.32247,40.450036 848.25329,35.307456 851.90846,35.307456 C 853.97015,35.307456 856.77989,37.902966 856.77989,39.807456 C 856.77989,43.305261 851.43781,45.565373 848.97989,43.107457 z "
       id="path2884" />
    <text
       xml:space="preserve"
       style="font-size:24px;font-style:normal;font-variant:normal;font-weight:bold;font-stretch:normal;text-align:start;line-height:125%;writing-mode:lr-tb;text-anchor:start;fill:black;fill-opacity:1;stroke:none;stroke-width:1px;stroke-linecap:butt;stroke-linejoin:miter;stroke-opacity:1;font-family:Aharoni"
       x="104.04572"
       y="116.66496"
       id="text5567"
       sodipodi:linespacing="125%"><tspan
         sodipodi:role="line"
         id="tspan5569"
         x="104.04572"
         y="116.66496">Standard</tspan></text>
    <text
       xml:space="preserve"
       style="font-size:24px;font-style:normal;font-variant:normal;font-weight:bold;font-stretch:normal;text-align:start;line-height:125%;writing-mode:lr-tb;text-anchor:start;opacity:1;fill:black;fill-opacity:1;stroke:none;stroke-width:1px;stroke-linecap:butt;stroke-linejoin:miter;stroke-opacity:1;font-family:Aharoni"
       x="254.63324"
       y="116.61825"
       id="text5571"
       sodipodi:linespacing="125%"><tspan
         sodipodi:role="line"
         id="tspan5575"
         x="254.63324"
         y="116.61825">Double</tspan></text>
    <text
       xml:space="preserve"
       style="font-size:24px;font-style:normal;font-variant:normal;font-weight:bold;font-stretch:normal;text-align:start;line-height:125%;writing-mode:lr-tb;text-anchor:start;opacity:1;fill:black;fill-opacity:1;stroke:none;stroke-width:1px;stroke-linecap:butt;stroke-linejoin:miter;stroke-opacity:1;font-family:Aharoni"
       x="400.09525"
       y="116.73544"
       id="text5577"
       sodipodi:linespacing="125%"><tspan
         sodipodi:role="line"
         id="tspan5579"
         x="400.09525"
         y="116.73544">End</tspan></text>
    <text
       xml:space="preserve"
       style="font-size:24px;font-style:normal;font-variant:normal;font-weight:bold;font-stretch:normal;text-align:start;line-height:125%;writing-mode:lr-tb;text-anchor:start;opacity:1;fill:black;fill-opacity:1;stroke:none;stroke-width:1px;stroke-linecap:butt;stroke-linejoin:miter;stroke-opacity:1;font-family:Aharoni"
       x="553.20618"
       y="115.99468"
       id="text5589"
       sodipodi:linespacing="125%"><tspan
         sodipodi:role="line"
         x="553.20618"
         y="115.99468"
         id="tspan5601"
         style="text-align:center;text-anchor:middle">Begin</tspan><tspan
         sodipodi:role="line"
         x="553.20618"
         y="145.99468"
         id="tspan5605"
         style="text-align:center;text-anchor:middle">Repeat</tspan></text>
    <text
       xml:space="preserve"
       style="font-size:24px;font-style:normal;font-variant:normal;font-weight:bold;font-stretch:normal;text-align:start;line-height:125%;writing-mode:lr-tb;text-anchor:start;opacity:1;fill:black;fill-opacity:1;stroke:none;stroke-width:1px;stroke-linecap:butt;stroke-linejoin:miter;stroke-opacity:1;font-family:Aharoni"
       x="690.58679"
       y="115.9945"
       id="text5593"
       sodipodi:linespacing="125%"><tspan
         sodipodi:role="line"
         id="tspan5595"
         x="690.58679"
         y="115.9945"
         style="text-align:center;text-anchor:middle">End</tspan><tspan
         sodipodi:role="line"
         x="690.58679"
         y="145.9945"
         id="tspan5607"
         style="text-align:center;text-anchor:middle">Repeat</tspan></text>
    <text
       xml:space="preserve"
       style="font-size:24px;font-style:normal;font-variant:normal;font-weight:bold;font-stretch:normal;text-align:start;line-height:125%;writing-mode:lr-tb;text-anchor:start;opacity:1;fill:black;fill-opacity:1;stroke:none;stroke-width:1px;stroke-linecap:butt;stroke-linejoin:miter;stroke-opacity:1;font-family:Aharoni"
       x="822.91687"
       y="115.9945"
       id="text5597"
       sodipodi:linespacing="125%"><tspan
         sodipodi:role="line"
         id="tspan5599"
         x="822.91687"
         y="115.9945"
         style="text-align:center;text-anchor:middle">Begin and</tspan><tspan
         sodipodi:role="line"
         x="822.91687"
         y="145.9945"
         id="tspan5609"
         style="text-align:center;text-anchor:middle">End Repeat</tspan></text>
  </g>
</svg>
