<?xml version="1.0" encoding="utf-8"?>
<!-- Generator: Adobe Illustrator 16.0.0, SVG Export Plug-In . SVG Version: 6.00 Build 0)  -->
<!DOCTYPE svg PUBLIC "-//W3C//DTD SVG 1.1//EN" "http://www.w3.org/Graphics/SVG/1.1/DTD/svg11.dtd">
<svg version="1.1" id="Layer_1" xmlns="http://www.w3.org/2000/svg" xmlns:xlink="http://www.w3.org/1999/xlink" x="0px" y="0px"
	 width="37.219px" height="100px" viewBox="-22.407 -29.616 37.219 100" enable-background="new -22.407 -29.616 37.219 100"
	 xml:space="preserve">
<path d="M7.124,2.451c0.747,7.661-4.949,13.863-9.993,18.875c-2.29,2.199-0.38,0.363-1.577,1.457
	c-0.251-1.175-0.733-4.243-0.687-5.171C-4.814,11.007,0.552,1.465,5.255-2.053C6.011-0.642,6.634-0.527,7.124,2.451z M8.721,42.015
	C5.7,39.793,1.735,39.208-1.902,39.843c-0.469-3.075-0.938-6.15-1.407-9.225C2.452,24.911,8.718,18.285,9.046,9.691
	C9.19,4.219,8.368-1.76,4.932-6.201C0.765-5.886-2.174-0.917-4.385,2.173c-3.648,6.544-2.796,14.502-1.396,21.558
	c-1.983,2.334-4.729,4.272-6.685,6.702c-5.775,5.656-10.807,13.307-9.815,21.758c0.45,8.171,6.347,15.771,14.387,17.714
	c3.054,0.771,6.285,0.848,9.373,0.242c0.538,5.515,2.515,11.344,0.228,16.698c-1.719,3.916-6.833,7.362-10.62,5.371
	c-1.47-0.773-0.278-0.125-1.171-0.618c2.621-0.629,4.9-2.538,5.539-3.834c2.054-3.589-0.979-8.919-5.282-8.23
	c-5.543,0.112-7.819,7.695-4.253,11.481c3.301,3.727,9.394,3.216,13.307,0.78c4.442-2.893,5-8.686,4.492-13.631
	C3.546,76.5,2.73,71.618,2.629,69.862c1.709-0.61,0.512-0.144,2.925-1.102c6.517-2.58,10.676-10.438,8.808-17.452
	C13.581,47.706,11.803,44.165,8.721,42.015z M10.094,56.122c0.524,4.879-2.58,10.59-7.546,12.157
	c-0.333-1.947-0.421-2.479-0.644-3.616C0.722,58.634,0.08,52.442-0.832,46.329c3.983-0.412,8.475,1.331,9.861,5.352
	C9.625,53.096,9.869,54.615,10.094,56.122z M-2.524,68.857c-6.235,0.347-12.254-3.908-13.81-10.002
	c-1.835-5.275-1.295-11.349,2.013-15.941c2.733-4.171,6.388-7.607,9.873-11.133c0.448,2.762,0.897,5.523,1.345,8.288
	c-7.329,1.917-12.266,11.581-7.879,18.261c1.304,1.875,4.844,5.45,6.778,4.007c-2.702-1.675-4.909-4.557-4.435-7.91
	c-0.201-3.142,3.358-7.135,6.499-7.838c1.075,7.031,2.307,14.885,3.382,21.919C0.002,68.75-1.262,68.857-2.524,68.857z"/>
</svg>
